<?xml version="1.0" encoding="UTF-8" standalone="no"?>
<!-- Created with Inkscape (http://www.inkscape.org/) -->

<svg
   width="200mm"
   height="71mm"
   viewBox="0 0 200 71"
   version="1.1"
   id="svg1"
   xml:space="preserve"
   sodipodi:docname="logo.svg"
   inkscape:version="1.4 (86a8ad7, 2024-10-11)"
   xmlns:inkscape="http://www.inkscape.org/namespaces/inkscape"
   xmlns:sodipodi="http://sodipodi.sourceforge.net/DTD/sodipodi-0.dtd"
   xmlns="http://www.w3.org/2000/svg"
   xmlns:svg="http://www.w3.org/2000/svg"><sodipodi:namedview
     id="namedview1"
     pagecolor="#ffffff"
     bordercolor="#000000"
     borderopacity="0.25"
     inkscape:showpageshadow="2"
     inkscape:pageopacity="0.0"
     inkscape:pagecheckerboard="0"
     inkscape:deskcolor="#d1d1d1"
     inkscape:document-units="mm"
     showguides="false"
     inkscape:zoom="0.49264168"
     inkscape:cx="381.61611"
     inkscape:cy="181.67363"
     inkscape:window-width="1920"
     inkscape:window-height="1057"
     inkscape:window-x="-8"
     inkscape:window-y="-8"
     inkscape:window-maximized="1"
     inkscape:current-layer="layer1" /><defs
     id="defs1"><rect
       x="79.165039"
       y="688.12689"
       width="560.24493"
       height="355.22775"
       id="rect6" /><rect
       x="101.49364"
       y="755.11267"
       width="442.51227"
       height="202.98727"
       id="rect5" /><rect
       x="223.28601"
       y="818.03876"
       width="119.7625"
       height="79.165039"
       id="rect4" /><rect
       x="48.716949"
       y="738.87372"
       width="527.76697"
       height="121.79237"
       id="rect3" /><rect
       x="93.374153"
       y="97.433899"
       width="280.12244"
       height="81.194916"
       id="rect2" /><rect
       x="99.463768"
       y="64.955933"
       width="444.54214"
       height="239.52499"
       id="rect1" /><rect
       x="79.165039"
       y="688.12689"
       width="560.24493"
       height="355.22775"
       id="rect6-4" /><rect
       x="79.165039"
       y="688.12689"
       width="560.24493"
       height="355.22775"
       id="rect6-4-4" /></defs><path
     style="display:inline;opacity:1;fill:#000000;fill-opacity:1;stroke:none;stroke-width:0.914647"
     d="M 123.8192,4.8145905 185.56017,4.3085194 162.28081,61.494837 c 0,0 -60.56015,0.674763 -60.22275,0 0.33738,-0.674766 21.76114,-56.6802465 21.76114,-56.6802465 z"
     id="path7" /><path
     style="opacity:1;fill:#000000;fill-opacity:1;stroke:none;stroke-width:0.914647"
     d="M 40.404424,3.4650599 17.293729,59.976613 40.741807,60.145295 44.284321,51.542044 57.610926,51.373361 54.743175,60.482684 78.191248,60.313988 101.9767,2.790297 Z"
     id="path6" /><text
     xml:space="preserve"
     transform="matrix(4.3837918,0,0,4.3837918,-324.68711,-3016.0757)"
     id="text5"
     style="font-style:normal;font-variant:normal;font-weight:normal;font-stretch:normal;font-family:'Full Pack 2025';-inkscape-font-specification:'Full Pack 2025, ';text-align:start;writing-mode:lr-tb;direction:ltr;white-space:pre;shape-inside:url(#rect6-4);display:inline;fill:#38852e;fill-opacity:1;stroke:#fffdfd;stroke-width:0;stroke-dasharray:none;stroke-opacity:1"><tspan
       x="79.164062"
       y="701.62695"
       id="tspan1">A</tspan></text><text
     xml:space="preserve"
     transform="matrix(4.3837918,0,0,4.3837918,-244.66128,-3015.1775)"
     id="text5-8"
     style="font-style:normal;font-variant:normal;font-weight:normal;font-stretch:normal;font-family:'Full Pack 2025';-inkscape-font-specification:'Full Pack 2025, ';text-align:start;writing-mode:lr-tb;direction:ltr;white-space:pre;shape-inside:url(#rect6-4-4);display:inline;fill:#38852e;fill-opacity:1;stroke:#fffdfd;stroke-width:0;stroke-dasharray:none;stroke-opacity:1"><tspan
       x="79.164062"
       y="701.62695"
       id="tspan2">S</tspan></text><g
     inkscape:label="Layer 1"
     inkscape:groupmode="layer"
     id="layer1"
     style="display:inline"><path
       d="m 91.846654,4.8082983 c -1.67529,4.083503 -5.56197,8.9443617 -12.741787,15.9502857 -3.95369,3.8572 -7.438299,7.40936 -8.826397,9.02309 -2.66132,3.08968 -4.470637,6.09081 -5.102458,8.4622 -0.641396,2.37139 -0.631826,5.79564 0.0096,8.21622 0.287197,1.10206 1.081761,2.87321 1.780595,3.9851 0.784996,1.24966 2.584738,3.10938 3.781374,3.92607 2.18267,1.47597 5.159902,2.3222 8.213719,2.3222 2.067789,0 3.944113,-0.45264 5.839583,-1.41693 1.608291,-0.8167 2.594321,-1.54485 4.068571,-3.03066 0.73714,-0.73798 1.34979,-1.32836 1.36895,-1.30868 0.067,0.059 -0.47865,1.84002 -0.78499,2.60753 -0.34463,0.82654 -1.19664,2.25332 -2.0295,3.41441 -0.65098,0.89542 -2.556016,2.87322 -3.580336,3.72929 -1.560416,1.29883 -3.656922,2.63705 -5.236486,3.33568 -0.392494,0.17711 -0.727552,0.34438 -0.756272,0.36406 -0.01914,0.0295 0.325488,0.3444 0.76585,0.70846 2.75705,2.24348 6.241652,3.68993 10.204924,4.2508 1.52211,0.20663 5.27478,0.246 6.65329,0.0591 3.331441,-0.46248 6.394846,-1.57438 8.778566,-3.20778 1.1392,-0.7675 2.19225,-1.61371 2.24968,-1.78099 0.0191,-0.0591 -0.13401,-0.16727 -0.32548,-0.23615 -0.60311,-0.20665 -2.79537,-1.46614 -3.76224,-2.15492 -4.068555,-2.89289 -6.844756,-6.28763 -7.964806,-9.76106 -0.13403,-0.40343 -0.26806,-0.92494 -0.30635,-1.15125 l -0.0575,-0.41327 1.40724,1.44644 c 1.06262,1.09222 1.665721,1.62355 2.421991,2.13523 2.948525,1.98764 6.509725,2.77482 10.147535,2.26315 2.59431,-0.37391 5.18864,-1.57436 7.20856,-3.34552 1.79974,-1.56453 3.35058,-4.06382 4.03027,-6.47456 0.37335,-1.31854 0.55523,-2.79451 0.55523,-4.54599 0,-2.29267 -0.3159,-3.96543 -1.07218,-5.60868 -0.21061,-0.4723 -0.38293,-0.87573 -0.38293,-0.90525 0,-0.0295 -0.30634,-0.58055 -0.67969,-1.22998 -1.86675,-3.24713 -5.31306,-7.18303 -11.52603,-13.165621 -4.02072,-3.867049 -6.528885,-6.48443 -8.768995,-9.151016 -2.144371,-2.5485057 -3.857951,-5.1363647 -4.690811,-7.1043217 -0.22018,-0.501828 -0.4308,-0.954456 -0.46909,-0.993816 -0.0288,-0.03936 -0.22017,0.314873 -0.42121,0.78718 z"
       id="path1"
       style="fill:#121517;fill-opacity:1;stroke:#38852e;stroke-width:1;stroke-dasharray:none;stroke-opacity:1" /><g
       transform="matrix(0.01399339,0,0,-0.01494944,66.700597,59.358264)"
       fill="#000000"
       stroke="none"
       id="g5"
       style="fill:#38852e;fill-opacity:1;stroke:#fffdfd;stroke-width:28.8312;stroke-dasharray:none;stroke-opacity:1"><path
         d="m 2859,2940 c -11,-7 -15,-48 -19,-197 -5,-201 -8,-213 -60,-256 -40,-35 -187,-107 -215,-107 -30,0 -170,71 -217,110 -50,42 -58,76 -58,262 0,86 -3,163 -6,172 -10,26 -39,18 -87,-24 -164,-145 -214,-418 -113,-617 13,-27 74,-102 135,-168 61,-66 119,-138 130,-160 18,-38 19,-77 24,-699 l 6,-659 28,-41 c 44,-63 95,-88 170,-83 52,2 69,8 100,33 21,17 47,45 59,61 20,31 21,44 27,697 5,581 8,670 22,696 9,17 59,77 112,133 167,178 203,254 203,423 0,83 -5,116 -23,167 -31,86 -71,151 -122,203 -52,52 -76,65 -96,54 z M 2628,724 c 26,-29 28,-54 7,-93 -45,-87 -176,-24 -144,69 22,61 92,73 137,24 z"
         id="path1-8"
         style="fill:#38852e;fill-opacity:1;stroke:#fffdfd;stroke-width:28.8312;stroke-dasharray:none;stroke-opacity:1" /><path
         d="M 1545,2701 C 1314,2634 1131,2444 939,2072 875,1947 854,1917 769,1826 613,1657 608,1637 612,1243 c 3,-260 5,-291 22,-323 35,-66 75,-107 134,-138 l 60,-32 h 186 186 l 41,37 c 23,21 97,101 164,178 68,77 138,154 156,172 65,61 77,63 414,63 h 305 v 194 195 l -412,3 -413,3 -95,39 c -52,21 -139,61 -193,88 -110,55 -134,83 -102,118 18,20 30,20 612,20 591,0 593,0 593,20 0,39 -28,77 -61,84 -17,3 -290,6 -606,6 -536,0 -575,1 -569,17 4,9 38,69 76,134 130,219 275,374 396,424 65,26 80,28 246,33 l 177,4 16,49 c 12,36 14,53 5,68 -10,20 -19,21 -178,20 -128,0 -181,-5 -227,-18 z M 1091,1573 c 163,-80 307,-176 315,-209 9,-36 -39,-103 -96,-132 -42,-22 -53,-23 -165,-18 -177,8 -269,39 -337,114 -63,70 -77,215 -26,270 33,35 55,42 124,39 51,-2 80,-12 185,-64 z"
         id="path2"
         style="fill:#38852e;fill-opacity:1;stroke:#fffdfd;stroke-width:28.8312;stroke-dasharray:none;stroke-opacity:1" /><path
         d="m 515,2111 c -90,-37 -114,-170 -41,-226 30,-23 42,-25 129,-25 h 95 l 30,38 c 16,20 46,68 65,107 l 36,70 -21,22 c -20,22 -29,23 -147,22 -69,0 -135,-4 -146,-8 z"
         id="path3"
         style="fill:#38852e;fill-opacity:1;stroke:#fffdfd;stroke-width:28.8312;stroke-dasharray:none;stroke-opacity:1" /><path
         d="m 1505,902 c -16,-11 -52,-42 -78,-71 -47,-51 -48,-53 -31,-72 17,-19 32,-19 448,-17 l 431,3 v 85 85 l -370,3 c -345,2 -372,1 -400,-16 z"
         id="path4"
         style="fill:#38852e;fill-opacity:1;stroke:#fffdfd;stroke-width:28.8312;stroke-dasharray:none;stroke-opacity:1" /><path
         d="m 680,618 c 8,-172 17,-178 239,-178 146,0 167,2 196,20 39,24 54,57 57,130 l 3,55 -190,5 -190,5 -57,33 c -32,17 -59,32 -60,32 -2,0 -1,-46 2,-102 z"
         id="path5"
         style="fill:#38852e;fill-opacity:1;stroke:#fffdfd;stroke-width:28.8312;stroke-dasharray:none;stroke-opacity:1" /></g></g></svg>
